<svg width="11" height="11" viewBox="0 0 11 11" fill="none" xmlns="http://www.w3.org/2000/svg">
<path d="M9.53613 9.05078H8.53613V2.31152L1.41211 9.40527L0.707031 8.69629L7.93457 1.5H1.12988V0.5H9.53613V9.05078Z" fill="#171A1E"/>
<path d="M9.53613 9.05078V9.55078H10.0361V9.05078H9.53613ZM8.53613 9.05078H8.03613V9.55078H8.53613V9.05078ZM8.53613 2.31152H9.03613V1.10804L8.18333 1.95722L8.53613 2.31152ZM1.41211 9.40527L1.05758 9.75785L1.41038 10.1126L1.76491 9.75958L1.41211 9.40527ZM0.707031 8.69629L0.354245 8.34197L0.00013721 8.69455L0.352503 9.04886L0.707031 8.69629ZM7.93457 1.5L8.28736 1.85432L9.14539 1H7.93457V1.5ZM1.12988 1.5H0.629883V2H1.12988V1.5ZM1.12988 0.5V0H0.629883V0.5H1.12988ZM9.53613 0.5H10.0361V0H9.53613V0.5ZM9.53613 9.05078V8.55078H8.53613V9.05078V9.55078H9.53613V9.05078ZM8.53613 9.05078H9.03613V2.31152H8.53613H8.03613V9.05078H8.53613ZM8.53613 2.31152L8.18333 1.95722L1.05931 9.05097L1.41211 9.40527L1.76491 9.75958L8.88893 2.66583L8.53613 2.31152ZM1.41211 9.40527L1.76664 9.0527L1.06156 8.34371L0.707031 8.69629L0.352503 9.04886L1.05758 9.75785L1.41211 9.40527ZM0.707031 8.69629L1.05982 9.05061L8.28736 1.85432L7.93457 1.5L7.58178 1.14568L0.354245 8.34197L0.707031 8.69629ZM7.93457 1.5V1H1.12988V1.5V2H7.93457V1.5ZM1.12988 1.5H1.62988V0.5H1.12988H0.629883V1.5H1.12988ZM1.12988 0.5V1H9.53613V0.5V0H1.12988V0.5ZM9.53613 0.5H9.03613V9.05078H9.53613H10.0361V0.5H9.53613Z" fill="#171A1E"/>
</svg>
