<svg width="17" height="17" viewBox="0 0 17 17" fill="none" xmlns="http://www.w3.org/2000/svg">
<path d="M12.4968 5.22171H12.363C9.23243 5.22171 6.1016 5.22171 2.97098 5.22171C2.36753 5.22171 1.76428 5.22356 1.16083 5.21986C1.06763 5.21924 1.03965 5.24393 1.03965 5.34002C1.04232 7.66504 1.0417 9.98985 1.04191 12.3149C1.04191 12.4735 1.06783 12.4992 1.22688 12.4992C3.19874 12.4992 5.1704 12.4994 7.14226 12.4994C7.24458 12.4994 7.29574 12.5521 7.29574 12.6575C7.29574 12.9111 7.29081 13.165 7.29821 13.4187C7.30109 13.5224 7.27188 13.5513 7.16674 13.551C5.55164 13.5478 3.93654 13.549 2.32123 13.5486C1.89966 13.5486 1.47788 13.5519 1.05652 13.5422C0.954674 13.5399 0.851801 13.4978 0.752838 13.464C0.195474 13.2741 -0.00204157 12.7836 1.58863e-05 12.3616C0.00557101 11.2884 0.00186759 10.2149 0.00186759 9.14174C0.00186759 8.79874 0.00186759 8.45596 0.00186759 8.11297C0.00186759 6.49656 0.00186759 4.88016 0.00186759 3.26375C0.00186759 2.79505 0.203704 2.4428 0.612725 2.21276C0.767652 2.12552 0.938214 2.08869 1.11474 2.08293C1.2312 2.07923 1.34806 2.08602 1.46451 2.08067C1.54331 2.07717 1.57644 2.10042 1.57253 2.18478C1.56656 2.31482 1.575 2.44547 1.57026 2.57551C1.55442 3.02343 1.82374 3.43124 2.25272 3.58411C2.75495 3.76312 3.29976 3.55819 3.53307 3.0617C3.59912 2.92097 3.61949 2.75451 3.63883 2.59732C3.6559 2.45884 3.64459 2.31646 3.64171 2.17593C3.64027 2.10474 3.66866 2.07408 3.73923 2.08149C3.7561 2.08334 3.77359 2.0817 3.79067 2.0817C5.7759 2.0817 7.76135 2.0817 9.74658 2.0817C9.89966 2.0817 9.89575 2.0819 9.90069 2.2391C9.90789 2.47057 9.87764 2.70246 9.95315 2.93208C10.0947 3.36252 10.5249 3.67567 10.9776 3.64049C11.1352 3.62814 11.2971 3.59131 11.443 3.53123C11.5415 3.4907 11.618 3.39297 11.6989 3.31499C11.7547 3.26108 11.8063 3.2012 11.8505 3.13742C11.9631 2.97467 11.961 2.78208 11.9746 2.59629C11.9847 2.45987 11.9799 2.32202 11.9756 2.18499C11.973 2.10351 12.003 2.07552 12.0841 2.08067C12.2478 2.09096 12.4126 2.08725 12.576 2.10165C12.8675 2.12737 13.0723 2.30782 13.2661 2.50555C13.4815 2.7253 13.5471 2.99586 13.5469 3.29318C13.5457 4.58593 13.5455 5.87868 13.5483 7.17143C13.5486 7.2669 13.5278 7.30394 13.4247 7.30127C13.1539 7.29427 12.883 7.2955 12.612 7.30065C12.5219 7.3025 12.4943 7.27575 12.4949 7.1846C12.4986 6.58113 12.4968 5.97765 12.4968 5.37397V5.2215V5.22171Z" fill="#171A1E"/>
<path d="M4.16614 8.33695H4.05936C3.43883 8.33695 2.81851 8.3353 2.19798 8.3388C2.11116 8.33921 2.07947 8.3211 2.08009 8.22666C2.08441 7.60961 2.08441 6.99255 2.08009 6.3757C2.07947 6.272 2.1091 6.24114 2.21382 6.24196C2.82735 6.24669 3.44109 6.24566 4.05462 6.24278C4.1398 6.24237 4.17828 6.26151 4.17787 6.35595C4.17478 6.98658 4.17643 7.61742 4.17581 8.24806C4.17581 8.2746 4.17005 8.30115 4.16593 8.33695H4.16614Z" fill="#171A1E"/>
<path d="M8.3418 8.33015V6.24957C8.38109 6.24751 8.41443 6.24422 8.44796 6.24422C9.06499 6.24401 9.68223 6.24586 10.2993 6.24195C10.396 6.24133 10.4235 6.27364 10.4231 6.36623C10.4202 6.98678 10.4213 7.60734 10.4219 8.22789C10.4219 8.29085 10.4229 8.33879 10.3334 8.33838C9.68552 8.33529 9.03742 8.33653 8.38953 8.33612C8.37636 8.33612 8.36299 8.33283 8.3418 8.33015Z" fill="#171A1E"/>
<path d="M3.12815 11.4624C2.81603 11.4624 2.50412 11.4599 2.19201 11.4641C2.10765 11.4651 2.07967 11.4396 2.08008 11.3534C2.08317 10.7293 2.08296 10.1053 2.08008 9.48121C2.07967 9.39912 2.10683 9.37484 2.18666 9.37525C2.81418 9.37772 3.4417 9.37751 4.06923 9.37525C4.14865 9.37504 4.17724 9.39932 4.17704 9.48121C4.17436 10.1088 4.17457 10.7363 4.17683 11.3637C4.17704 11.4408 4.14947 11.4645 4.07458 11.4639C3.75917 11.461 3.44356 11.4626 3.12815 11.4626V11.4624Z" fill="#171A1E"/>
<path d="M7.28249 8.33817C6.95083 8.32254 6.62184 8.36924 6.29862 8.30422C6.248 8.31616 6.1976 8.33776 6.14678 8.33817C5.86573 8.34064 5.58489 8.33509 5.30384 8.33838C5.22524 8.33941 5.20487 8.31163 5.20508 8.23756C5.20734 7.61042 5.20714 6.98328 5.20549 6.35615C5.20529 6.27508 5.22751 6.24133 5.31721 6.24195C5.94082 6.24566 6.56464 6.24422 7.18826 6.24339C7.24854 6.24339 7.29607 6.24607 7.29586 6.32734C7.29401 6.98184 7.29422 7.63635 7.29339 8.29085C7.29339 8.30052 7.28887 8.3104 7.28228 8.33797L7.28249 8.33817Z" fill="#171A1E"/>
<path d="M6.25068 11.4624C5.93877 11.4624 5.62665 11.4603 5.31474 11.4638C5.23615 11.4646 5.20529 11.4424 5.20549 11.3595C5.20775 10.7322 5.20714 10.1046 5.20508 9.47726C5.20487 9.40237 5.2308 9.3748 5.30692 9.375C5.93774 9.37726 6.56855 9.37726 7.19957 9.37562C7.26871 9.37562 7.2971 9.3964 7.29689 9.46965C7.29483 10.104 7.29483 10.7381 7.29689 11.3725C7.2971 11.4488 7.26315 11.4638 7.1969 11.4634C6.88149 11.4613 6.56608 11.4626 6.25068 11.4624Z" fill="#171A1E"/>
<path d="M3.12998 1.56325C3.12998 1.90913 3.1306 2.2552 3.12998 2.60108C3.12936 2.8988 2.90736 3.1169 2.61788 3.13089C2.33457 3.14447 2.08109 2.89695 2.08088 2.61383C2.08088 1.91509 2.07842 1.21635 2.08212 0.517611C2.08376 0.222354 2.3177 0.00178601 2.61088 0.00466656C2.90345 0.00754712 3.12875 0.232436 3.12977 0.52543C3.13101 0.871303 3.12998 1.21738 3.12998 1.56325Z" fill="#171A1E"/>
<path d="M11.4582 1.57111C11.4582 1.91369 11.457 2.25628 11.4586 2.59886C11.4594 2.80049 11.3779 2.95954 11.2041 3.0581C10.8428 3.26344 10.4212 3.02806 10.4146 2.60667C10.4039 1.91472 10.4089 1.22257 10.413 0.53041C10.4144 0.290707 10.5566 0.10059 10.7671 0.0273414C10.9706 -0.043438 11.2051 0.0263126 11.3481 0.200586C11.4325 0.303258 11.4596 0.422801 11.459 0.553455C11.457 0.892537 11.4584 1.23183 11.4582 1.57091V1.57111Z" fill="#171A1E"/>
<path d="M11.836 12.9167H11.9683C12.4378 12.9167 12.9073 12.9157 13.3769 12.9172C13.5931 12.918 13.7571 13.0116 13.8612 13.2042C14.0332 13.5225 13.8003 13.9564 13.439 13.9614C12.716 13.9714 11.9928 13.9681 11.2696 13.9624C11.0083 13.9603 10.7855 13.7157 10.7847 13.4459C10.7826 12.7503 10.7828 12.0544 10.7847 11.3588C10.7853 11.0674 11.0153 10.8419 11.3071 10.8399C11.6029 10.8378 11.8317 11.0543 11.8346 11.3516C11.8391 11.8244 11.836 12.2974 11.836 12.7704C11.836 12.8143 11.836 12.8581 11.836 12.9165V12.9167Z" fill="#171A1E"/>
<path d="M16.5219 12.3922C16.5219 12.3772 16.5215 12.3622 16.5213 12.3472C16.5145 11.8388 16.4168 11.3526 16.2436 10.9036C16.144 10.6446 16.0185 10.3962 15.8664 10.1584C15.564 9.68533 15.184 9.28987 14.727 8.97692C14.618 8.9012 14.505 8.83063 14.3888 8.7654C14.2777 8.69627 14.1676 8.62014 14.0382 8.5901C13.9528 8.55224 13.8658 8.51706 13.7775 8.48496C13.7584 8.47385 13.7388 8.4648 13.7182 8.46006C13.7067 8.45739 13.6952 8.45471 13.6839 8.45204C13.2769 8.31501 12.8418 8.23949 12.3893 8.23559C12.3844 8.23559 12.3797 8.23559 12.3747 8.23559C12.3677 8.23559 12.3607 8.23538 12.3537 8.23538C12.3486 8.23538 12.3437 8.23538 12.3387 8.23538C11.4641 8.23229 10.6584 8.48434 9.94426 9.00181C9.94055 9.00449 9.93685 9.00716 9.93294 9.00984C9.92595 9.01498 9.91874 9.02013 9.91175 9.02527C9.67391 9.19749 9.45479 9.39419 9.25851 9.61187C8.79682 10.1145 8.48532 10.6925 8.32237 11.341C8.23328 11.6803 8.18555 12.0365 8.18555 12.4038C8.18555 12.4233 8.18596 12.4428 8.18637 12.4624C8.17855 12.9109 8.26517 13.3436 8.40899 13.7634C8.61329 14.359 8.94001 14.8839 9.38442 15.3327C9.85455 15.8073 10.4016 16.16 11.0349 16.3592C11.3602 16.4676 11.7032 16.5369 12.0587 16.5618C12.0606 16.562 12.0626 16.5625 12.0645 16.5627C12.1379 16.5744 12.2134 16.5729 12.2891 16.5715C12.3107 16.5719 12.3323 16.5723 12.3542 16.5723C12.3811 16.5723 12.4081 16.5719 12.4348 16.5713C12.8794 16.5742 13.3103 16.4886 13.7287 16.3439C14.2001 16.181 14.6307 15.9394 15.0126 15.617C15.657 15.0728 16.0997 14.4158 16.3347 13.6449C16.3349 13.6438 16.3353 13.6428 16.3355 13.642C16.3394 13.6292 16.3431 13.6163 16.3471 13.6035C16.4259 13.3412 16.4793 13.0679 16.5049 12.7867C16.5053 12.7823 16.5057 12.778 16.5061 12.7737C16.5079 12.7531 16.5098 12.7325 16.5112 12.7118C16.5162 12.6461 16.5195 12.5807 16.5211 12.5153C16.5211 12.512 16.5211 12.5087 16.5213 12.5054C16.5219 12.4772 16.5223 12.449 16.5223 12.4206C16.5223 12.4151 16.5226 12.4095 16.5226 12.404C16.5226 12.4 16.5226 12.3961 16.5226 12.392L16.5219 12.3922ZM15.4346 12.4165C15.4346 12.4373 15.4344 12.4583 15.4337 12.4791C15.4337 12.4815 15.4337 12.484 15.4337 12.4865C15.4325 12.5348 15.43 12.5834 15.4265 12.6317C15.4255 12.647 15.4241 12.6624 15.4226 12.6776C15.4224 12.6809 15.422 12.684 15.4218 12.6873C15.4029 12.8953 15.3634 13.0971 15.3052 13.291C15.3023 13.3004 15.2996 13.3101 15.2967 13.3196L15.2961 13.3218C15.1225 13.8916 14.7951 14.3771 14.3188 14.7794C14.0367 15.0176 13.7184 15.1962 13.3699 15.3168C13.0607 15.4236 12.7422 15.487 12.4136 15.4847C12.3939 15.4851 12.3739 15.4855 12.3539 15.4855C12.3379 15.4855 12.3218 15.4851 12.3058 15.4849C12.25 15.4859 12.1941 15.4872 12.1398 15.4783C12.1383 15.4781 12.1369 15.4779 12.1354 15.4777C11.8727 15.4594 11.6192 15.408 11.3787 15.3279C10.9106 15.1806 10.5064 14.9199 10.1588 14.5691C9.83027 14.2374 9.58894 13.8496 9.43792 13.4093C9.33155 13.099 9.26756 12.7793 9.27332 12.4478C9.27332 12.4334 9.2727 12.419 9.2727 12.4044C9.2727 12.133 9.30789 11.8696 9.37393 11.619C9.4945 11.1396 9.72452 10.7125 10.0659 10.3409C10.2109 10.18 10.3728 10.0347 10.5487 9.90734C10.5539 9.90343 10.5592 9.89972 10.5644 9.89581C10.5673 9.89376 10.5699 9.89191 10.5726 9.88985C11.1003 9.50735 11.696 9.32114 12.3424 9.32341C12.3461 9.32341 12.3498 9.32341 12.3535 9.32341C12.3587 9.32341 12.3638 9.32341 12.3692 9.32341C12.3729 9.32341 12.3764 9.32341 12.3801 9.32341C12.7144 9.32629 13.036 9.38205 13.337 9.48328C13.3454 9.48534 13.3539 9.48719 13.3625 9.48924C13.3777 9.49274 13.3921 9.49953 13.4063 9.50756C13.4716 9.53122 13.5357 9.55735 13.5989 9.58513C13.6944 9.60735 13.7759 9.66352 13.8579 9.71475C13.9439 9.7629 14.0273 9.81516 14.1079 9.87112C14.4456 10.1024 14.7266 10.3948 14.95 10.7443C15.0624 10.9201 15.1554 11.1036 15.2288 11.2951C15.3568 11.6268 15.429 11.9863 15.4342 12.362C15.4342 12.3731 15.4346 12.3842 15.4346 12.3953C15.4346 12.3982 15.4346 12.4011 15.4346 12.4042C15.4346 12.4083 15.4346 12.4124 15.4346 12.4165Z" fill="#171A1E"/>
</svg>
