<svg width="17" height="12" viewBox="0 0 17 12" fill="none" xmlns="http://www.w3.org/2000/svg">
<path d="M7.21522 11.4654C5.37495 11.4654 3.53412 11.4665 1.69385 11.4648C0.693609 11.4636 0.162587 10.7512 0.480742 9.80187C1.00432 8.23909 1.54221 6.68089 2.09097 5.12669C2.42744 4.17392 3.30179 3.56963 4.3049 3.56849C7.93793 3.56563 11.5715 3.5662 15.2046 3.56734C15.8609 3.56734 16.3187 3.80539 16.4583 4.30896C16.5378 4.59565 16.5482 4.94815 16.4572 5.2274C15.9433 6.80277 15.3905 8.36613 14.8481 9.93234C14.5511 10.7896 13.6035 11.4911 12.6513 11.4745C10.8402 11.443 9.02802 11.4654 7.21579 11.4654H7.21522Z" fill="#171A1E"/>
<path d="M0.0160222 9.94613C0.0103 9.85744 0 9.76874 0 9.68004C0 7.03917 0 4.39829 0.00171666 1.75799C0.00171666 0.668451 0.653477 0.00923404 1.73955 0.00465614C2.63565 0.00122272 3.53232 0.0109508 4.42842 7.82443e-05C4.65159 -0.00278294 4.80494 0.0727524 4.94514 0.238701C5.35084 0.71938 5.77372 1.18518 6.17541 1.66929C6.31675 1.83982 6.46553 1.90734 6.68813 1.9062C8.6806 1.89819 10.6731 1.89876 12.6656 1.90219C13.4192 1.90334 14.008 2.27758 14.2603 2.89789C14.3925 3.22235 14.3731 3.2521 14.0234 3.2521C10.7915 3.2521 7.55962 3.25668 4.32771 3.24924C3.52145 3.24752 2.84852 3.54223 2.33409 4.14021C2.09204 4.42176 1.89577 4.7691 1.76988 5.11988C1.21483 6.66092 0.693533 8.21397 0.159078 9.76245C0.136189 9.82883 0.0995665 9.89005 0.0692388 9.95357L0.0165944 9.94556L0.0160222 9.94613Z" fill="#171A1E"/>
</svg>
