<svg width="18" height="16" viewBox="0 0 18 16" fill="none" xmlns="http://www.w3.org/2000/svg">
<path d="M7.97925 0C8.55374 0.0974104 9.13764 0.157674 9.70113 0.299405C11.4436 0.737513 12.9242 1.60767 14.0021 3.07488C15.7621 5.47029 15.3212 8.61006 12.9599 10.5546C11.3758 11.8592 9.53052 12.396 7.50203 12.3864C6.58089 12.3821 5.6848 12.2399 4.80767 11.9579C4.66943 11.9134 4.49452 11.9131 4.35484 11.9545C3.37551 12.245 2.40129 12.5522 1.42483 12.8526C1.3011 12.8907 1.17465 12.9195 0.984113 12.9701C1.31529 12.1747 1.61042 11.4343 1.93442 10.7069C2.03519 10.4808 2.0108 10.3601 1.82967 10.1844C0.867716 9.25191 0.218125 8.1474 0.056604 6.79178C0.0483127 6.72243 0.0192932 6.65563 0 6.58756C0 6.27045 0 5.95319 0 5.63609C0.155462 5.08941 0.243636 4.51181 0.478184 4.00132C1.36743 2.06666 2.96493 0.958958 4.95325 0.374655C5.5786 0.190835 6.2376 0.121643 6.88129 0C7.24739 0 7.61332 0 7.97941 0H7.97925ZM2.61303 11.5018C3.26103 11.3069 3.83775 11.1274 4.41878 10.9637C4.53773 10.9302 4.68809 10.9167 4.7989 10.9592C5.68655 11.3001 6.60848 11.4531 7.55241 11.4554C9.13605 11.4594 10.6196 11.0863 11.9291 10.1646C14.7368 8.18853 14.8926 4.77566 12.2759 2.59835C11.1169 1.63382 9.7579 1.13194 8.27072 0.993713C6.18499 0.799849 4.27576 1.26649 2.64636 2.63917C1.13766 3.91044 0.577042 5.78771 1.18039 7.53583C1.52002 8.51982 2.14601 9.30484 2.96844 9.9306C3.15213 10.0704 3.17668 10.1863 3.08197 10.3867C2.92141 10.7265 2.78874 11.0793 2.61303 11.5018Z" fill="#171A1E"/>
<path d="M17.494 11.0524C17.3051 11.9291 16.9192 12.6926 16.2542 13.3136C16.1724 13.39 16.1899 13.6073 16.2106 13.7522C16.288 14.2899 16.3859 14.8248 16.4868 15.4244C15.8308 15.1681 15.2305 14.9445 14.6404 14.6969C14.4229 14.6058 14.244 14.6136 14.0219 14.6942C11.6541 15.5547 9.488 15.2183 7.49219 13.551C11.6463 13.3106 14.8043 11.7281 16.1537 7.51855C16.7915 8.20011 17.2346 8.9982 17.4221 9.93532C17.443 10.0399 17.4701 10.1434 17.4942 10.2472V11.0523L17.494 11.0524Z" fill="#171A1E"/>
<path d="M7.5668 4.37488C8.54199 4.37488 9.51701 4.37025 10.4922 4.37679C10.9261 4.37982 11.1775 4.71015 10.9784 5.03347C10.8985 5.16325 10.6949 5.29159 10.5464 5.29286C8.54757 5.30992 6.54857 5.30498 4.54957 5.30418C4.24487 5.30418 4.06533 5.14444 4.0371 4.84599C4.01175 4.57703 4.23626 4.3787 4.56823 4.37679C5.56765 4.37121 6.56722 4.37472 7.56664 4.37472L7.5668 4.37488Z" fill="#171A1E"/>
<path d="M6.62493 7.75946C5.95477 7.75946 5.28461 7.76201 4.61445 7.75834C4.26606 7.75643 4.03789 7.56528 4.03518 7.28692C4.03263 7.01398 4.26733 6.80959 4.61174 6.80863C5.96418 6.80481 7.31661 6.80449 8.66921 6.80879C9.01171 6.80991 9.24689 7.01988 9.2209 7.30286C9.1914 7.62586 8.98603 7.76106 8.67192 7.75994C7.98964 7.75755 7.30721 7.7593 6.62493 7.7593V7.75946Z" fill="#171A1E"/>
</svg>
